<svg width="184" height="47" viewBox="0 0 184 47" fill="none" xmlns="http://www.w3.org/2000/svg">
<g clip-path="url(#clip0_27_2568)">
<path d="M24.0032 0.00908162C27.4694 -0.0844582 30.916 0.555339 34.1144 1.88604C37.3128 3.21673 40.1899 5.20791 42.5548 7.7275L34.983 14.6386C32.0017 11.846 28.0709 10.2718 23.9738 10.2298C16.0717 10.2298 10.9647 16.0982 10.9647 23.5166C10.8829 25.1808 11.1319 26.8447 11.6976 28.4133C12.2632 29.9818 13.1344 31.4242 14.2613 32.6581C15.3882 33.892 16.7488 34.8932 18.2653 35.6045C19.7818 36.3158 21.4245 36.7232 23.0995 36.8034C23.4763 36.8215 23.8542 36.8236 24.2311 36.8034C31.9843 36.8034 35.755 32.5446 36.0427 28.2868H23.4257V18.9528H47.8097V23.1361C47.8097 36.1361 40.1163 47 24.0021 47C9.96378 47 -0.000946045 36.6474 -0.000946045 23.5116C-0.000946045 10.3758 9.9648 0.00908162 24.0032 0.00908162Z" fill="#2F6EB5"/>
<path d="M50.4599 1.51392H79.809V11.023H61.3333V18.9528H78.4008V28.3573H61.3333V36.2709H80.6114V45.5254H50.4599V1.51392Z" fill="#2F6EB5"/>
<path d="M81.4147 1.51392H110.764V11.023H92.2882V18.9528H109.355V28.3573H92.2882V36.2709H111.564V45.5254H81.4147V1.51392Z" fill="#2F6EB5"/>
<path d="M112.384 1.51386H130.935C132.751 1.43425 134.565 1.71079 136.274 2.32769C137.982 2.9446 139.551 3.88978 140.892 5.10928C142.232 6.32878 143.318 7.79871 144.087 9.43513C144.856 11.0716 145.293 12.8424 145.373 14.6466C145.387 14.9587 145.391 15.2704 145.383 15.5817C145.466 19.2364 144.085 22.7742 141.543 25.4169C139.001 28.0597 135.506 29.5909 131.828 29.6738C131.546 29.6798 131.263 29.6775 130.981 29.6667H123.166V45.5253H112.384V1.51386ZM129.89 20.4123C132.707 20.4123 134.252 17.8244 134.252 15.2667C134.303 14.6716 134.226 14.0726 134.029 13.5086C133.831 12.9446 133.517 12.4281 133.105 11.9926C132.694 11.557 132.195 11.2122 131.642 10.9803C131.088 10.7484 130.491 10.6347 129.89 10.6465H123.166V20.4103L129.89 20.4123Z" fill="#2F6EB5"/>
<path d="M156.12 22.5785L141.87 1.51392H154.469L162.826 14.6648L170.747 1.51392H183.241L169.144 23.4512L184 45.5556H171.582L162.495 31.682L153.666 45.5556H141.205L156.12 22.5785Z" fill="#2F6EB5"/>
</g>
<defs>
<clipPath id="clip0_27_2568">
<rect width="184" height="47" fill="white"/>
</clipPath>
</defs>
</svg>
